<?xml version="1.0" standalone="no"?>
<!DOCTYPE svg PUBLIC "-//W3C//DTD SVG 20010904//EN"
 "http://www.w3.org/TR/2001/REC-SVG-20010904/DTD/svg10.dtd">
<svg version="1.0" xmlns="http://www.w3.org/2000/svg"
 width="1024.000000pt" height="1024.000000pt" viewBox="0 0 1024.000000 1024.000000"
 preserveAspectRatio="xMidYMid meet">

<g transform="translate(0.000000,1024.000000) scale(0.100000,-0.100000)"
fill="#000000" stroke="none">
<path d="M7894 8025 c-132 -29 -265 -120 -340 -232 -150 -226 -115 -514 85
-713 118 -117 231 -164 396 -164 83 0 113 4 172 26 223 80 367 291 366 533 -2
173 -45 280 -162 395 -145 143 -325 197 -517 155z"/>
<path d="M3385 8024 c-367 -48 -672 -170 -947 -381 -404 -310 -648 -724 -735
-1252 -17 -99 -18 -217 -15 -1726 1 -891 5 -1647 8 -1680 20 -221 152 -403
345 -476 119 -46 289 -43 394 5 91 42 143 99 181 202 18 46 19 107 24 1019 l5
970 22 48 c33 70 115 152 192 190 l66 32 325 6 c357 7 390 11 503 72 115 61
167 126 317 398 165 300 181 333 187 380 8 56 -26 119 -80 150 l-42 24 -758 3
-758 2 6 93 c9 133 23 202 57 290 92 240 320 443 584 519 79 22 80 22 1019 28
939 5 940 5 1006 27 127 43 239 137 317 263 111 182 272 480 281 522 16 72 -2
141 -51 194 -75 81 11 76 -1278 79 -630 2 -1158 1 -1175 -1z"/>
<path d="M7902 6685 c-153 -43 -280 -176 -335 -350 l-22 -70 0 -1340 0 -1340
24 -84 c21 -75 289 -624 448 -918 55 -104 67 -108 162 -58 96 51 186 147 240
257 76 156 71 16 71 1834 0 1594 0 1633 -20 1708 -38 151 -130 265 -265 332
-68 34 -87 38 -163 41 -55 2 -106 -3 -140 -12z"/>
<path d="M5349 6537 c-126 -36 -203 -112 -302 -301 -86 -162 -653 -1270 -1001
-1956 -130 -256 -280 -550 -334 -655 -96 -187 -388 -751 -503 -973 -33 -63
-59 -124 -59 -137 0 -44 20 -47 368 -43 305 4 332 5 393 26 37 12 88 34 113
48 58 33 148 114 185 168 52 75 946 1794 1152 2214 l101 206 152 -305 c84
-167 194 -383 245 -479 51 -96 116 -218 143 -270 469 -887 705 -1326 748
-1389 22 -33 59 -75 83 -95 57 -47 176 -101 251 -115 78 -14 640 -15 667 -1
30 17 23 49 -35 161 -118 231 -555 1086 -731 1434 -655 1291 -1143 2232 -1190
2297 -46 63 -122 122 -192 148 -71 27 -191 35 -254 17z"/>
<path d="M5437 4193 c-3 -5 -17 -55 -32 -113 -73 -285 -201 -420 -455 -480
-47 -12 -98 -24 -115 -28 -24 -6 -31 -14 -33 -39 -4 -38 8 -45 98 -62 157 -30
308 -117 387 -225 60 -81 90 -150 118 -271 22 -99 42 -132 65 -109 6 6 22 55
36 110 37 148 83 234 173 325 87 87 177 136 301 164 95 21 119 31 127 51 12
32 -13 47 -124 75 -125 30 -212 72 -283 136 -87 78 -163 223 -197 375 -8 40
-20 79 -26 86 -11 13 -33 16 -40 5z"/>
</g>
</svg>
